<svg xmlns="http://www.w3.org/2000/svg" viewBox="0 0 357.735 43.906">
  <path d="M 166.485 2.188 L 167.422 2.188 A 5.158 5.158 0 0 1 172.116 4.978 Q 172.735 6.035 173.15 7.492 A 19.272 19.272 0 0 1 173.672 10 A 4189.501 4189.501 0 0 0 174.668 14.307 Q 177.738 27.545 178.295 29.475 A 5.691 5.691 0 0 0 178.36 29.688 L 178.828 29.688 A 0.25 0.25 0 0 0 178.97 29.524 Q 179.465 28.549 180.826 21.767 A 404.122 404.122 0 0 0 181.328 19.219 A 435.276 435.276 0 0 1 182.293 14.775 Q 184.253 5.991 185.078 4.531 A 6.53 6.53 0 0 1 186.453 3.149 A 4.978 4.978 0 0 1 189.453 2.188 L 190.391 2.188 Q 194.336 2.188 195.547 6.406 A 9.804 9.804 0 0 1 195.759 7.289 Q 196.699 11.792 200.391 36.094 L 200.391 36.563 Q 199.927 40.561 196.787 40.905 A 5.646 5.646 0 0 1 196.172 40.938 A 3.859 3.859 0 0 1 192.483 38.49 Q 191.485 36.393 191.485 32.5 L 189.297 13.438 A 0.938 0.938 0 0 1 189.193 13.432 Q 189.088 13.421 189.036 13.383 A 0.119 0.119 0 0 1 188.985 13.281 Q 188.203 13.281 187.578 18.594 A 323.665 323.665 0 0 1 186.257 24.941 Q 183.521 37.398 181.628 39.961 A 1.301 1.301 0 0 1 180.703 40.625 L 178.672 40.938 A 6.82 6.82 0 0 1 176.832 40.707 Q 174.729 40.118 173.906 38.022 A 6.001 6.001 0 0 1 173.828 37.813 A 5.318 5.318 0 0 1 173.643 37.203 Q 172.754 33.862 168.516 13.594 L 168.047 13.281 A 0.387 0.387 0 0 0 167.739 13.522 Q 167.323 14.236 167.154 17.072 A 50.86 50.86 0 0 0 167.11 17.969 A 1834.112 1834.112 0 0 1 166.397 23.76 Q 164.961 35.274 164.453 37.813 A 7.701 7.701 0 0 1 163.696 39.18 Q 163.171 39.921 162.529 40.35 A 3.49 3.49 0 0 1 160.547 40.938 Q 156.563 40.938 156.172 36.25 A 1944.051 1944.051 0 0 1 157.29 29.545 Q 160.836 8.521 161.998 4.999 A 5.83 5.83 0 0 1 162.11 4.688 Q 163.711 2.188 166.485 2.188 Z M 129.688 2.031 L 130.156 2.031 Q 138.867 2.031 141.719 10.156 A 27.244 27.244 0 0 1 142.1 12.471 A 30.884 30.884 0 0 1 142.188 13.281 A 11.987 11.987 0 0 1 140.938 18.317 Q 139.034 22.407 134.232 27.273 A 79.758 79.758 0 0 1 129.063 32.031 L 129.063 32.344 Q 129.063 32.578 129.531 32.813 L 137.188 32.813 A 12.062 12.062 0 0 1 139.173 32.962 Q 142.359 33.496 142.969 35.938 L 142.969 37.344 A 2.753 2.753 0 0 1 141.635 39.719 Q 140.596 40.422 138.75 40.781 L 121.25 40.781 A 13.239 13.239 0 0 1 119.71 40.552 Q 116.719 39.905 116.719 37.969 A 0.091 0.091 0 0 1 116.642 37.917 Q 116.564 37.791 116.563 37.358 A 4.889 4.889 0 0 1 116.563 37.344 L 116.563 36.875 A 2.411 2.411 0 0 1 116.813 35.942 Q 117.749 33.84 122.188 29.063 A 339.367 339.367 0 0 0 125.051 25.754 Q 129.267 20.815 130.983 18.317 A 13.946 13.946 0 0 0 131.875 16.875 Q 132.725 15.206 132.915 14.15 A 3.166 3.166 0 0 0 132.969 13.594 A 3.955 3.955 0 0 0 132.698 12.082 Q 132.252 10.995 131.071 10.434 A 5.704 5.704 0 0 0 129.688 10 A 2.855 2.855 0 0 0 127.851 10.741 Q 126.088 12.205 124.531 16.563 Q 123.724 17.64 122.824 18.042 A 2.681 2.681 0 0 1 121.719 18.281 L 121.094 18.281 A 3.706 3.706 0 0 1 119.24 17.838 Q 117.56 16.889 117.188 13.906 A 10.592 10.592 0 0 1 120.291 6.425 Q 121.617 5.022 123.51 3.787 A 23.552 23.552 0 0 1 124.063 3.438 A 12.998 12.998 0 0 1 127.56 2.229 A 11.56 11.56 0 0 1 129.688 2.031 Z M 322.031 28.281 L 307.344 28.281 A 0.286 0.286 0 0 0 307.18 28.327 Q 307.068 28.402 307.041 28.604 A 1.082 1.082 0 0 0 307.031 28.75 Q 307.031 31.797 311.563 32.969 A 0.286 0.286 0 0 0 311.67 33.028 Q 311.94 33.122 312.754 33.125 A 14.803 14.803 0 0 0 312.813 33.125 L 313.594 33.125 Q 315.781 33.125 321.875 30.469 L 322.5 30.469 Q 324.649 30.469 325.469 33.594 L 325.469 33.75 A 4.341 4.341 0 0 1 324.055 36.876 Q 322.525 38.407 319.339 39.589 A 32.594 32.594 0 0 1 316.563 40.469 A 32.046 32.046 0 0 1 314.527 40.702 A 23.341 23.341 0 0 1 312.656 40.781 A 14.325 14.325 0 0 1 306.228 39.391 Q 302.97 37.781 300.785 34.307 A 21.49 21.49 0 0 1 298.906 30.469 A 25.466 25.466 0 0 1 298.479 28.283 Q 298.319 27.197 298.288 26.224 A 14.302 14.302 0 0 1 298.281 25.781 A 15.735 15.735 0 0 1 299.525 19.385 Q 301.182 15.619 305.043 13.165 A 21.158 21.158 0 0 1 308.125 11.563 Q 310.235 11.094 312.344 10.938 A 13.381 13.381 0 0 1 318.8 12.465 Q 321.516 13.931 323.503 16.802 A 19.651 19.651 0 0 1 324.844 19.063 A 15.1 15.1 0 0 1 325.966 22.992 A 13.481 13.481 0 0 1 326.094 24.844 Q 326.094 28.281 322.031 28.281 Z M 62.969 33.125 L 49.531 33.125 A 0.177 0.177 0 0 0 49.452 33.215 Q 49.068 33.848 47.188 38.906 Q 45.625 40.781 44.063 40.781 L 43.906 40.781 A 4.744 4.744 0 0 1 42.131 40.473 Q 40.003 39.619 39.688 36.406 A 3.002 3.002 0 0 1 39.793 35.801 Q 40.422 33.225 44.824 21.523 A 1190.128 1190.128 0 0 1 46.406 17.344 A 190.792 190.792 0 0 1 47.962 12.827 Q 51.508 2.969 53.125 2.969 Q 54.688 1.875 56.563 1.875 A 6.101 6.101 0 0 1 61.71 4.657 Q 63.198 6.72 64.063 10.313 A 2266.953 2266.953 0 0 1 66.05 15.798 Q 72.264 33.024 73.059 36.27 A 8.025 8.025 0 0 1 73.125 36.563 A 4.834 4.834 0 0 1 72.826 38.331 Q 71.98 40.493 68.75 40.781 A 4.031 4.031 0 0 1 65.33 38.902 Q 64.175 37.269 63.594 34.219 A 7.802 7.802 0 0 0 63.47 33.861 Q 63.202 33.149 62.984 33.126 A 0.139 0.139 0 0 0 62.969 33.125 Z M 108.672 5.625 L 108.672 6.094 Q 108.672 8.086 101.641 17.344 A 245.627 245.627 0 0 0 100.799 18.56 Q 98.11 22.467 98.049 22.948 A 0.164 0.164 0 0 0 98.047 22.969 L 98.047 34.844 A 12.379 12.379 0 0 1 97.886 36.937 Q 97.242 40.673 94.018 40.778 A 5.796 5.796 0 0 1 93.828 40.781 L 93.672 40.781 A 4.294 4.294 0 0 1 91.68 40.349 Q 89.9 39.431 89.543 36.564 A 12.682 12.682 0 0 1 89.453 35 L 89.453 23.125 A 0.923 0.923 0 0 0 89.348 22.806 Q 88.72 21.454 84.324 15.327 A 498.415 498.415 0 0 0 82.735 13.125 Q 78.828 7.891 78.828 6.25 L 78.828 5.781 A 7.397 7.397 0 0 1 79.287 4.337 Q 80.246 2.189 82.419 2.188 A 3.015 3.015 0 0 1 82.422 2.188 L 83.203 2.188 Q 85.865 2.188 91.933 12.257 A 125.652 125.652 0 0 1 92.266 12.813 A 46.075 46.075 0 0 0 92.553 13.215 Q 93.488 14.513 93.667 14.531 A 0.049 0.049 0 0 0 93.672 14.531 L 93.985 14.531 Q 94.12 14.531 99.34 6.847 A 1900.221 1900.221 0 0 0 101.016 4.375 Q 102.796 2.501 104.227 2.126 A 2.734 2.734 0 0 1 104.922 2.031 Q 106.715 2.461 107.651 3.301 A 2.988 2.988 0 0 1 108.672 5.625 Z M 344.141 18.281 L 343.672 18.281 A 5.04 5.04 0 0 0 342.988 18.441 Q 341.797 18.816 341.797 19.688 A 1.102 1.102 0 0 0 342.162 20.408 Q 343.293 21.606 347.922 23.321 A 72.367 72.367 0 0 0 348.672 23.594 A 13.646 13.646 0 0 1 351.475 25.303 A 7.893 7.893 0 0 1 354.61 31.719 A 7.644 7.644 0 0 1 351.89 37.572 Q 350.737 38.617 349.095 39.495 A 20.531 20.531 0 0 1 347.735 40.156 A 17.345 17.345 0 0 1 345.929 40.584 Q 344.817 40.781 343.828 40.781 L 342.578 40.781 A 16.028 16.028 0 0 1 339.079 40.428 Q 334.543 39.412 332.891 35.469 L 332.891 34.531 A 8.596 8.596 0 0 1 333.225 33.116 Q 334.012 30.781 336.016 30.781 Q 336.875 30.781 342.891 33.125 Q 343.62 33.264 343.793 33.279 A 0.413 0.413 0 0 0 343.828 33.281 A 5.496 5.496 0 0 0 344.613 33.145 Q 345.497 32.916 345.824 32.41 A 1.246 1.246 0 0 0 346.016 31.719 L 346.016 31.094 Q 346.016 30.503 340.394 27.929 A 184.875 184.875 0 0 0 338.047 26.875 Q 335.454 25.324 334.398 23.416 A 5.675 5.675 0 0 1 333.672 20.625 L 333.672 19.531 A 7.365 7.365 0 0 1 336.898 13.322 Q 338.1 12.437 339.75 11.755 A 18.529 18.529 0 0 1 340.235 11.563 A 8.774 8.774 0 0 1 342.061 11.08 Q 342.904 10.946 343.857 10.938 A 14.605 14.605 0 0 1 343.985 10.938 Q 351.641 10.938 353.828 15.938 Q 353.828 16.445 353.985 16.719 A 6.402 6.402 0 0 1 353.622 18.163 Q 352.778 20.313 350.391 20.313 A 1.687 1.687 0 0 1 350.062 20.253 Q 348.971 19.982 344.737 18.492 A 406.619 406.619 0 0 1 344.141 18.281 Z M 32.031 20.938 L 32.031 22.344 Q 32.031 34.178 22.316 38.995 A 23.565 23.565 0 0 1 20.781 39.688 A 19.503 19.503 0 0 1 16.189 40.675 A 23.845 23.845 0 0 1 13.906 40.781 L 5 40.781 A 7.717 7.717 0 0 1 3.067 40.561 Q 0.58 39.915 0.11 37.378 A 7.061 7.061 0 0 1 0 36.094 L 0 8.75 A 11.354 11.354 0 0 1 0.11 7.104 Q 0.395 5.168 1.418 4.246 A 2.996 2.996 0 0 1 1.875 3.906 A 3.084 3.084 0 0 1 2.721 3.518 Q 4.467 2.969 8.594 2.969 A 89.739 89.739 0 0 1 13.108 3.073 Q 22.039 3.525 23.594 5.938 A 17.066 17.066 0 0 1 29.135 10.879 Q 31.488 14.235 31.93 18.778 A 22.335 22.335 0 0 1 32.031 20.938 Z M 29.375 9.375 L 29.531 9.375 A 18.338 18.338 0 0 1 35.132 22.174 A 24.456 24.456 0 0 1 35.156 23.281 L 35.156 23.906 A 24.644 24.644 0 0 1 34.069 31.488 Q 31.648 38.997 23.836 42.373 A 26.685 26.685 0 0 1 21.406 43.281 Q 17.969 43.906 15.469 43.906 L 7.813 43.906 A 14.584 14.584 0 0 1 5.796 43.778 Q 3.411 43.443 2.241 42.241 A 3.701 3.701 0 0 1 1.719 41.563 L 1.719 41.25 L 1.875 41.25 A 10.494 10.494 0 0 0 3.137 41.579 Q 3.812 41.708 4.428 41.718 A 6.336 6.336 0 0 0 4.531 41.719 L 14.688 41.719 Q 25.047 41.719 30.107 33.24 A 25.691 25.691 0 0 0 32.031 29.219 A 27.796 27.796 0 0 0 33.099 22.557 A 31.727 31.727 0 0 0 33.125 21.25 Q 33.125 14.961 29.375 9.375 Z M 257.5 30.156 L 258.125 30.156 Q 261.64 16.8 262.878 13.691 A 7.521 7.521 0 0 1 263.125 13.125 A 4.394 4.394 0 0 1 264.478 12.104 A 4.077 4.077 0 0 1 266.25 11.719 Q 269.805 11.719 270.156 15.781 Q 270.156 17.52 262.733 35.995 A 1320.548 1320.548 0 0 1 261.875 38.125 A 5.949 5.949 0 0 1 260.797 39.638 Q 259.513 40.916 257.566 40.937 A 6.053 6.053 0 0 1 257.5 40.938 A 4.215 4.215 0 0 1 254.39 39.495 Q 252.999 38.042 251.96 35.126 A 28.929 28.929 0 0 1 251.25 32.813 Q 245.895 20.142 245.016 16.535 A 4.962 4.962 0 0 1 244.844 15.469 A 7.766 7.766 0 0 1 245.318 13.899 Q 246.303 11.631 248.61 11.565 A 4.875 4.875 0 0 1 248.75 11.563 A 3.927 3.927 0 0 1 252.198 13.547 Q 253.133 14.995 253.594 17.5 Q 256.873 28.69 257.42 29.996 A 0.816 0.816 0 0 0 257.5 30.156 Z M 109.297 3.75 L 109.453 3.75 Q 110.768 4.802 111.346 5.854 A 3.395 3.395 0 0 1 111.797 7.5 L 111.797 7.656 A 5.039 5.039 0 0 1 111.504 9.214 Q 110.711 11.606 107.773 15.535 A 65.564 65.564 0 0 1 107.11 16.406 L 101.172 24.844 L 101.172 35.938 A 16.72 16.72 0 0 1 100.958 38.746 Q 100.073 43.906 95.547 43.906 A 5.104 5.104 0 0 1 93.671 43.576 Q 92.344 43.056 91.485 41.719 L 91.485 41.406 L 93.672 41.875 A 6.236 6.236 0 0 0 95.965 41.487 Q 98.985 40.299 98.985 35.469 L 98.985 23.438 Q 98.985 22.892 103.279 16.858 A 421.395 421.395 0 0 1 104.61 15 A 75.307 75.307 0 0 0 106.362 12.629 Q 109.766 7.813 109.766 5.781 A 1.511 1.511 0 0 0 109.746 5.571 Q 109.671 5.06 109.3 3.761 A 54.826 54.826 0 0 0 109.297 3.75 Z M 239.727 27.656 L 239.727 28.125 A 17.83 17.83 0 0 1 238.663 34.46 Q 236.877 39.191 232.094 41.954 A 21.192 21.192 0 0 1 229.727 43.125 A 15.54 15.54 0 0 1 226.342 43.845 A 13.847 13.847 0 0 1 225.039 43.906 L 224.102 43.906 Q 217.578 43.906 213.164 38.906 L 213.321 38.906 A 14.776 14.776 0 0 0 222.383 41.875 L 222.696 41.875 A 15.177 15.177 0 0 0 229.307 40.496 Q 232.908 38.779 235.219 34.92 A 22.694 22.694 0 0 0 237.227 30.469 Q 237.696 27.969 237.696 25.625 A 17.763 17.763 0 0 0 235.884 17.895 A 22.337 22.337 0 0 0 234.727 15.781 A 14.53 14.53 0 0 1 239.617 25.509 A 20.393 20.393 0 0 1 239.727 27.656 Z M 62.969 4.688 L 62.969 4.375 L 63.125 4.375 A 11.64 11.64 0 0 1 65.076 6.873 Q 66.724 9.63 67.813 14.063 Q 75.942 36.074 76.091 38.359 A 1.213 1.213 0 0 1 76.094 38.438 L 76.094 38.906 Q 76.094 43.242 70.625 43.906 A 4.774 4.774 0 0 1 67.299 42.56 A 7.332 7.332 0 0 1 66.406 41.563 L 66.406 41.406 A 24.43 24.43 0 0 0 67.061 41.543 Q 67.671 41.661 68.083 41.7 A 3.841 3.841 0 0 0 68.438 41.719 L 69.219 41.719 Q 73.438 41.719 74.063 36.719 Q 74.063 34.776 67.229 16.12 A 1222.437 1222.437 0 0 0 66.875 15.156 A 331.318 331.318 0 0 0 65.833 12.051 Q 63.731 5.894 62.969 4.688 Z M 195.86 4.219 L 196.016 4.219 A 3.013 3.013 0 0 1 197.078 5.043 Q 197.848 5.935 198.474 7.623 A 20.014 20.014 0 0 1 198.985 9.219 A 11795.229 11795.229 0 0 1 200.047 15.905 Q 203.516 37.788 203.516 38.438 A 10.064 10.064 0 0 1 203.03 40.602 Q 201.852 43.906 198.36 43.906 L 197.422 43.906 Q 195.352 43.906 193.828 41.563 L 193.985 41.563 Q 195.315 41.829 195.852 41.868 A 2.267 2.267 0 0 0 196.016 41.875 Q 199.534 41.875 200.859 38.951 A 7.206 7.206 0 0 0 201.172 38.125 A 0.559 0.559 0 0 0 201.231 37.982 Q 201.334 37.632 201.438 36.594 A 39.348 39.348 0 0 0 201.485 36.094 A 3940.766 3940.766 0 0 0 200.447 29.45 Q 197.233 8.988 196.428 5.549 A 9.34 9.34 0 0 0 196.328 5.156 A 0.284 0.284 0 0 1 196.15 5.05 Q 195.968 4.84 195.86 4.219 Z M 228.464 12.065 A 14.786 14.786 0 0 0 222.539 10.938 A 15.814 15.814 0 0 0 220.418 11.075 A 12.175 12.175 0 0 0 217.383 11.875 A 19.524 19.524 0 0 0 215.411 12.874 Q 210.951 15.473 209.296 19.909 A 16.707 16.707 0 0 0 208.321 25.781 A 7.66 7.66 0 0 0 208.321 25.872 Q 208.337 27.182 208.789 30.313 A 21.872 21.872 0 0 0 210.742 34.43 Q 212.862 37.852 216.015 39.474 A 14.057 14.057 0 0 0 222.539 40.938 A 14.43 14.43 0 0 0 228.008 39.844 A 19.567 19.567 0 0 0 229.648 38.973 Q 234.108 36.318 235.771 31.864 A 16.848 16.848 0 0 0 236.758 25.938 Q 236.563 23.164 236.133 21.406 A 20.569 20.569 0 0 0 234.457 17.603 Q 232.193 13.678 228.464 12.065 Z M 270.781 13.438 L 271.094 13.438 Q 273.195 14.976 273.278 17.596 A 6.862 6.862 0 0 1 273.281 17.813 A 5.467 5.467 0 0 1 273.032 19.009 Q 271.831 23.254 264.844 40.625 A 7.456 7.456 0 0 1 263.718 42.282 A 4.839 4.839 0 0 1 260 43.906 L 259.219 43.906 A 5.726 5.726 0 0 1 257.556 43.68 A 4.032 4.032 0 0 1 255 41.406 L 255.156 41.406 A 4.751 4.751 0 0 0 256.212 41.743 Q 256.704 41.842 257.27 41.867 A 8.828 8.828 0 0 0 257.656 41.875 A 5.493 5.493 0 0 0 262.462 39.182 Q 263.459 37.671 264.063 35.313 Q 271.094 17.93 271.094 16.25 L 271.094 15 A 1.382 1.382 0 0 0 271.081 14.834 Q 271.03 14.434 270.781 13.438 Z M 287.422 13.438 L 287.578 13.438 A 5.012 5.012 0 0 1 289.591 15.91 Q 289.963 16.828 290.12 17.999 A 13.919 13.919 0 0 1 290.235 19.844 L 290.235 36.875 Q 290.235 39.893 289.142 41.672 A 5.041 5.041 0 0 1 286.172 43.906 L 284.297 43.906 A 3.615 3.615 0 0 1 282.109 43.152 Q 281.588 42.767 281.104 42.185 A 7.891 7.891 0 0 1 280.86 41.875 L 280.703 41.563 L 280.86 41.563 A 49.274 49.274 0 0 0 281.538 41.684 Q 282.439 41.839 282.87 41.868 A 2.647 2.647 0 0 0 283.047 41.875 A 5.105 5.105 0 0 0 285.265 41.421 Q 287.317 40.444 287.936 37.366 A 11.815 11.815 0 0 0 288.047 36.719 A 93.299 93.299 0 0 0 288.115 35.596 Q 288.203 33.984 288.203 32.813 L 288.203 20.313 A 45.717 45.717 0 0 0 288.155 18.125 Q 288.008 15.078 287.422 13.438 Z M 324.219 15.938 L 324.219 15.781 L 324.375 15.781 A 15.285 15.285 0 0 1 327.797 20.457 A 14.028 14.028 0 0 1 329.063 26.406 L 329.063 27.344 Q 328.884 29.057 328.217 29.987 A 2.634 2.634 0 0 1 325.938 31.094 L 325.625 31.094 A 5.057 5.057 0 0 0 324.256 30.026 A 4.403 4.403 0 0 0 322.188 29.531 L 321.875 29.531 A 1.556 1.556 0 0 0 321.542 29.592 Q 320.668 29.818 317.899 30.885 A 212.063 212.063 0 0 0 316.563 31.406 L 310 31.406 A 12.084 12.084 0 0 1 309.373 30.905 Q 308.281 29.967 308.281 29.375 L 308.594 29.219 L 322.5 29.219 Q 326.369 29.219 326.935 26.257 A 5.875 5.875 0 0 0 327.031 25.156 L 327.031 24.531 Q 327.031 19.727 324.219 15.938 Z M 354.453 26.875 L 354.61 26.875 Q 357.735 29.57 357.735 33.281 Q 357.735 40.182 349.816 43.192 A 23.97 23.97 0 0 1 348.672 43.594 A 26.299 26.299 0 0 1 346.331 43.859 A 21.4 21.4 0 0 1 344.922 43.906 A 17.612 17.612 0 0 1 341.059 43.51 Q 338.527 42.94 336.687 41.554 A 9.992 9.992 0 0 1 334.922 39.844 L 335.235 39.844 Q 338.711 41.875 343.047 41.875 A 16.197 16.197 0 0 0 347.806 41.222 Q 353.041 39.617 355.235 34.063 A 21.038 21.038 0 0 0 355.396 33.216 Q 355.526 32.443 355.544 31.893 A 5.25 5.25 0 0 0 355.547 31.719 L 355.547 30.781 A 5.43 5.43 0 0 0 355.44 29.762 Q 355.238 28.712 354.655 27.335 A 21.512 21.512 0 0 0 354.453 26.875 Z M 143.75 34.844 L 144.063 34.844 A 6.951 6.951 0 0 1 145.079 35.786 Q 146.094 36.956 146.094 38.281 L 146.094 38.906 A 4.819 4.819 0 0 1 145.493 41.379 Q 144.016 43.906 138.906 43.906 L 123.75 43.906 A 11.023 11.023 0 0 1 121.768 43.741 Q 120.677 43.541 119.843 43.099 A 4.63 4.63 0 0 1 118.125 41.563 L 118.125 41.25 L 118.281 41.25 A 10.494 10.494 0 0 0 119.543 41.579 Q 120.218 41.708 120.834 41.718 A 6.336 6.336 0 0 0 120.938 41.719 L 138.125 41.719 A 8.802 8.802 0 0 0 140.327 41.465 Q 143.272 40.703 144.063 37.656 L 144.063 36.719 A 2.837 2.837 0 0 0 144.046 36.434 Q 143.995 35.943 143.795 35.042 A 32.311 32.311 0 0 0 143.75 34.844 Z M 282.735 11.875 L 283.203 11.875 A 3.636 3.636 0 0 1 285.21 12.405 Q 287.11 13.625 287.11 17.656 L 287.11 35.156 A 12.184 12.184 0 0 1 286.955 37.194 Q 286.316 40.938 283.047 40.938 A 4.074 4.074 0 0 1 281.34 40.595 Q 280.376 40.155 279.743 39.154 A 5.671 5.671 0 0 1 279.297 38.281 A 3.611 3.611 0 0 1 279.054 37.542 Q 278.763 36.295 278.694 33.745 A 63.563 63.563 0 0 1 278.672 32.031 L 278.672 20.625 A 36.621 36.621 0 0 1 278.76 17.974 Q 279.057 13.899 280.365 12.694 A 1.825 1.825 0 0 1 281.641 12.188 Q 281.641 11.917 282.71 11.876 A 8.612 8.612 0 0 1 282.735 11.875 Z M 188.516 18.281 L 188.672 18.281 A 0.153 0.153 0 0 1 188.772 18.394 Q 189.078 19.063 189.47 23.719 A 217.958 217.958 0 0 1 189.61 25.469 Q 186.596 40.407 184.351 42.817 A 1.196 1.196 0 0 1 183.516 43.281 A 0.245 0.245 0 0 1 183.381 43.474 Q 182.953 43.758 181.172 43.906 L 179.922 43.906 Q 177.388 43.554 176.376 42.723 A 1.657 1.657 0 0 1 175.703 41.406 Q 177.149 41.875 178.672 41.875 Q 182.422 41.875 183.672 38.594 A 61.548 61.548 0 0 0 185.003 34.35 Q 186.183 30.116 187.401 24.109 A 287.62 287.62 0 0 0 188.516 18.281 Z M 166.172 34.375 L 168.047 17.5 L 168.36 17.5 L 169.61 23.906 Q 167.852 41.094 166.953 41.094 Q 166.013 42.745 164.831 43.426 A 3.512 3.512 0 0 1 163.047 43.906 L 161.797 43.906 Q 160.126 43.906 158.62 42.367 A 8.871 8.871 0 0 1 158.047 41.719 L 158.047 41.406 A 13.214 13.214 0 0 0 158.929 41.654 Q 159.389 41.764 159.793 41.82 A 5.576 5.576 0 0 0 160.547 41.875 Q 165.274 41.875 166.172 34.375 Z M 140.938 6.094 L 141.094 6.094 A 11.232 11.232 0 0 1 145.132 14.296 A 14.712 14.712 0 0 1 145.156 15.156 L 145.156 15.313 A 13.857 13.857 0 0 1 143.645 21.376 Q 141.537 25.725 136.488 30.408 A 58.565 58.565 0 0 1 134.844 31.875 L 131.406 31.875 A 0.45 0.45 0 0 1 131.283 31.86 Q 131.144 31.82 131.107 31.678 A 0.46 0.46 0 0 1 131.094 31.563 A 60.526 60.526 0 0 0 136.287 26.653 Q 141.372 21.185 142.676 16.282 A 12.863 12.863 0 0 0 143.125 12.969 A 11.932 11.932 0 0 0 141.298 6.654 A 14.628 14.628 0 0 0 140.938 6.094 Z M 326.25 32.031 L 326.406 32.031 Q 328.438 33.164 328.438 35.625 L 328.438 36.25 Q 328.438 39.57 322.905 42.092 A 31.078 31.078 0 0 1 320.313 43.125 A 19.07 19.07 0 0 1 318.2 43.582 Q 316.736 43.818 315 43.906 Q 307.891 43.906 303.438 38.906 L 303.594 38.906 A 14.958 14.958 0 0 0 311.977 41.706 A 18.463 18.463 0 0 0 312.656 41.719 L 313.594 41.719 A 17.997 17.997 0 0 0 318.806 41.004 A 13.496 13.496 0 0 0 325.938 35.938 Q 326.332 34.918 326.395 34.065 A 4.315 4.315 0 0 0 326.406 33.75 A 3.216 3.216 0 0 0 326.401 33.583 Q 326.377 33.142 326.25 32.031 Z M 8.594 11.563 L 8.594 32.344 Q 8.594 32.578 9.063 32.813 L 12.031 32.813 A 15.598 15.598 0 0 0 16.171 32.312 Q 20.909 31.005 22.185 26.288 A 15.119 15.119 0 0 0 22.656 22.344 L 22.656 20.781 A 12.036 12.036 0 0 0 22.027 16.715 Q 20.119 11.389 12.432 11.109 A 23.925 23.925 0 0 0 11.563 11.094 L 9.063 11.094 Q 8.828 11.094 8.594 11.563 Z M 20 15.156 L 20 15.313 A 14.511 14.511 0 0 0 16.052 14.326 A 18.07 18.07 0 0 0 14.063 14.219 L 11.719 14.219 L 11.719 31.563 A 0.45 0.45 0 0 1 11.703 31.686 Q 11.664 31.825 11.522 31.862 A 0.46 0.46 0 0 1 11.406 31.875 L 10 31.875 A 0.45 0.45 0 0 1 9.877 31.86 Q 9.738 31.82 9.701 31.678 A 0.46 0.46 0 0 1 9.688 31.563 L 9.688 12.344 A 0.286 0.286 0 0 1 9.733 12.18 Q 9.808 12.068 10.01 12.04 A 1.082 1.082 0 0 1 10.156 12.031 A 32.208 32.208 0 0 1 13.339 12.176 Q 18.62 12.703 20 15.156 Z M 50 34.219 L 50.313 34.063 L 62.188 34.063 Q 62.557 34.063 62.926 35.736 A 17.698 17.698 0 0 1 62.969 35.938 L 62.656 36.094 L 52.031 36.094 A 21.952 21.952 0 0 1 51.217 38.945 Q 49.392 43.906 45.781 43.906 A 4.894 4.894 0 0 1 42.025 42.192 A 7.416 7.416 0 0 1 41.406 41.406 A 0.225 0.225 0 0 0 41.468 41.399 Q 41.538 41.379 41.556 41.308 A 0.23 0.23 0 0 0 41.563 41.25 A 4.019 4.019 0 0 0 42.213 41.552 Q 42.61 41.693 42.986 41.715 A 2.388 2.388 0 0 0 43.125 41.719 L 44.063 41.719 A 4.336 4.336 0 0 0 47.453 40.043 Q 49.053 38.174 50 34.219 Z M 178.828 26.406 L 178.516 26.406 A 996.151 996.151 0 0 0 177.133 20.27 Q 174.422 8.424 173.144 4.511 A 27.457 27.457 0 0 0 173.047 4.219 A 4.31 4.31 0 0 1 174.385 5.392 Q 175.297 6.559 175.966 8.602 A 21.245 21.245 0 0 1 176.328 9.844 A 2.58 2.58 0 0 0 176.377 10.133 Q 176.719 11.851 179.453 23.438 Q 178.938 25.597 178.847 26.214 A 1.485 1.485 0 0 0 178.828 26.406 Z M 354.297 14.375 L 354.453 14.375 A 6.645 6.645 0 0 1 355.851 15.636 A 4.783 4.783 0 0 1 356.953 18.75 L 356.953 18.906 A 8.148 8.148 0 0 1 356.488 20.727 Q 355.519 23.17 352.994 23.411 A 6.016 6.016 0 0 1 352.422 23.438 Q 344.295 21.165 342.928 19.728 A 1.72 1.72 0 0 1 342.891 19.688 Q 342.926 19.404 343.155 19.378 A 0.426 0.426 0 0 1 343.203 19.375 L 343.985 19.375 L 349.922 21.25 L 351.016 21.25 A 3.339 3.339 0 0 0 353.96 19.623 Q 354.578 18.679 354.922 17.188 L 354.922 16.875 A 5.177 5.177 0 0 0 354.541 14.882 A 4.973 4.973 0 0 0 354.297 14.375 Z M 217.071 25.781 L 217.071 25.938 A 10.743 10.743 0 0 0 217.337 28.432 Q 218.148 31.822 221.431 32.7 A 7.972 7.972 0 0 0 221.914 32.813 L 223.164 32.813 A 3.804 3.804 0 0 0 226.358 31.087 Q 227.432 29.612 228.008 26.875 L 228.008 25.625 Q 228.008 20.579 224.056 19.167 A 8.193 8.193 0 0 0 223.164 18.906 L 221.914 18.906 A 6.128 6.128 0 0 0 219.36 19.981 Q 217.201 21.601 217.078 25.323 A 13.852 13.852 0 0 0 217.071 25.781 Z M 52.656 25.156 L 59.844 25.156 L 60.625 25 L 60.625 24.688 A 2.179 2.179 0 0 0 60.564 24.324 Q 60.137 22.393 56.719 11.25 L 56.25 11.25 A 0.237 0.237 0 0 0 56.098 11.372 Q 55.565 12.102 54.115 17.196 A 220.553 220.553 0 0 0 53.594 19.063 Q 52.951 20.616 52.309 22.756 A 69.97 69.97 0 0 0 51.719 24.844 A 2.589 2.589 0 0 0 52.059 25.022 Q 52.251 25.104 52.431 25.136 A 1.284 1.284 0 0 0 52.656 25.156 Z M 288.047 1.875 L 288.203 1.875 A 8.232 8.232 0 0 1 289.661 3.309 A 5.436 5.436 0 0 1 290.86 6.719 L 290.86 7.031 A 5.384 5.384 0 0 1 290.025 10.032 Q 289.365 11.049 288.181 11.794 A 9.175 9.175 0 0 1 286.797 12.5 L 286.641 12.5 A 5.045 5.045 0 0 0 285.72 11.619 A 3.413 3.413 0 0 0 283.672 10.938 L 282.266 10.938 Q 281.904 10.938 281.005 11.206 A 18.286 18.286 0 0 0 280.86 11.25 A 25.004 25.004 0 0 1 280.676 11.028 Q 280.204 10.447 280.105 10.24 A 0.218 0.218 0 0 1 280.078 10.156 L 280.235 10.156 A 23.311 23.311 0 0 0 280.805 10.339 Q 281.585 10.577 281.97 10.617 A 1.361 1.361 0 0 0 282.11 10.625 L 283.828 10.625 A 4.153 4.153 0 0 0 287.106 9.038 Q 287.915 8.086 288.516 6.563 A 0.609 0.609 0 0 0 288.579 6.418 Q 288.694 6.058 288.81 5.013 A 31.615 31.615 0 0 0 288.828 4.844 A 4.398 4.398 0 0 0 288.752 4.067 Q 288.608 3.268 288.191 2.224 A 16.736 16.736 0 0 0 288.047 1.875 Z M 121.094 19.219 L 121.719 19.219 Q 125.156 19.219 126.801 13.842 A 19.784 19.784 0 0 0 126.875 13.594 A 6.16 6.16 0 0 1 127.481 12.5 Q 127.901 11.907 128.415 11.564 A 2.792 2.792 0 0 1 130 11.094 A 1.492 1.492 0 0 1 131.111 11.6 Q 131.543 12.054 131.856 12.915 A 6.815 6.815 0 0 1 131.875 12.969 Q 129.649 12.969 127.5 19.063 Q 125.821 21.406 123.438 21.406 Q 120.586 21.406 118.906 18.906 A 0.225 0.225 0 0 0 118.968 18.899 Q 119.038 18.879 119.056 18.808 A 0.23 0.23 0 0 0 119.063 18.75 A 3.035 3.035 0 0 0 119.89 19.085 Q 120.258 19.177 120.689 19.206 A 6.069 6.069 0 0 0 121.094 19.219 Z M 222.383 19.844 L 222.696 19.844 A 3.144 3.144 0 0 1 224.35 20.336 Q 225.183 20.844 225.977 21.875 L 225.977 22.188 L 224.571 21.875 Q 221.466 21.875 220.494 25.484 A 11.717 11.717 0 0 0 220.196 27.031 L 220.196 28.281 A 7.229 7.229 0 0 0 220.821 31.25 L 220.508 31.406 Q 218.008 29.375 218.008 25.938 A 9.26 9.26 0 0 1 218.242 23.778 A 5.27 5.27 0 0 1 220.977 20.156 Q 221.936 19.861 222.337 19.845 A 1.114 1.114 0 0 1 222.383 19.844 Z M 253.281 13.125 L 253.438 13.125 A 2.762 2.762 0 0 1 254.336 13.816 Q 255.371 14.963 256.25 17.656 A 1.296 1.296 0 0 0 256.284 17.876 Q 256.489 18.841 257.92 23.485 A 647.667 647.667 0 0 0 258.438 25.156 Q 258.074 27.008 257.766 27.292 A 0.165 0.165 0 0 1 257.656 27.344 L 257.5 27.344 A 24.309 24.309 0 0 0 257.209 26.166 Q 256.486 23.46 254.305 16.414 A 1207.483 1207.483 0 0 0 253.281 13.125 Z M 281.797 0.156 L 282.735 0 L 283.203 0 A 4.081 4.081 0 0 1 286.553 1.713 Q 287.063 2.368 287.473 3.274 A 11.161 11.161 0 0 1 287.735 3.906 L 287.735 5.469 A 3.601 3.601 0 0 1 286.26 8.395 Q 285.432 9.054 284.141 9.531 Q 283.946 9.688 283.047 9.688 L 282.891 9.688 Q 278.203 9.024 278.203 5.156 L 278.203 4.688 A 4.235 4.235 0 0 1 279.98 1.126 Q 280.66 0.615 281.6 0.234 A 9.708 9.708 0 0 1 281.797 0.156 Z M 306.875 22.5 L 307.188 22.656 L 317.5 22.656 A 0.45 0.45 0 0 0 317.624 22.641 Q 317.763 22.601 317.799 22.46 A 0.46 0.46 0 0 0 317.813 22.344 Q 316.641 17.813 312.344 17.813 A 5.059 5.059 0 0 0 308.129 19.934 Q 307.528 20.723 307.061 21.805 A 11.655 11.655 0 0 0 307.031 21.875 Q 306.875 22.149 306.875 22.5 Z M 55.469 24.063 L 53.125 24.063 L 53.125 23.906 A 545.51 545.51 0 0 1 53.817 21.526 Q 55.844 14.618 56.313 13.847 A 0.171 0.171 0 0 1 56.406 13.75 Q 57.642 17.572 57.656 17.96 A 0.235 0.235 0 0 1 57.656 17.969 A 267.655 267.655 0 0 1 57.204 19.389 Q 55.708 24.028 55.469 24.063 Z M 88.047 4.531 L 88.047 4.375 A 22.035 22.035 0 0 1 90.089 6.623 Q 92.064 9.096 94.141 12.813 L 93.828 12.969 A 0.739 0.739 0 0 1 93.661 12.803 Q 92.924 11.927 89.35 6.512 A 776.878 776.878 0 0 1 88.047 4.531 Z M 336.172 27.031 L 336.172 26.875 Q 338.245 28.161 341.271 29.553 A 89.173 89.173 0 0 0 344.453 30.938 L 345.078 31.563 Q 345.078 31.797 344.61 32.031 A 16.789 16.789 0 0 1 338.658 29.181 A 21.898 21.898 0 0 1 336.172 27.031 Z M 312.344 18.906 L 312.969 18.906 A 3.208 3.208 0 0 1 314.892 19.568 Q 315.692 20.151 316.406 21.25 L 316.25 21.25 Q 315.291 20.955 314.89 20.939 A 1.114 1.114 0 0 0 314.844 20.938 L 314.375 20.938 A 5.075 5.075 0 0 0 313.333 21.038 Q 312.67 21.178 312.161 21.509 A 2.985 2.985 0 0 0 311.875 21.719 L 308.281 21.719 L 308.281 21.406 Q 309.805 18.906 312.344 18.906 Z" fill="#000000"/>
</svg>